<svg version="1.2" xmlns="http://www.w3.org/2000/svg" viewBox="0 0 512 512" width="512" height="512">
	<title>vocavulary2</title>
	<style>
		.s0 { fill: #000000 } 
	</style>
	<path id="Núm eros" class="s0" aria-label="Núm
eros"  d="m178 124.9v100.1h-20.4l-39.7-65.9v65.9h-20.4v-100.1h20.4l39.7 66v-66zm61.2 100.1l-0.6-7.6q-7.3 9-20.1 9-11.8 0-18.1-6.9-6.2-6.9-6.3-20.1v-48.8h19.6v48.1q0 11.6 10.5 11.6 10 0 13.7-7v-52.7h19.7v74.4zm-22.7-84.3l13.4-21.3h21.4l-18.8 21.3zm56 9.9h18.4l0.6 8.3q7.9-9.7 21.2-9.7 14.2 0 19.5 11.4 7.7-11.4 22.1-11.4 11.9 0 17.8 7.1 5.8 7 5.8 21.2v47.5h-19.7v-47.4q0-6.4-2.4-9.3-2.5-2.9-8.7-2.9-8.8 0-12.2 8.5l0.1 51.1h-19.7v-47.4q0-6.4-2.5-9.3-2.5-2.9-8.5-2.9-8.4 0-12.1 7v52.6h-19.7zm-130.9 244.8q-16.2 0-26.4-10.1-10.1-10-10.1-26.7v-1.9q0-11.2 4.3-20 4.3-8.9 12.1-13.7 7.9-4.8 17.9-4.8 15.1 0 23.8 9.7 8.7 9.6 8.7 27.2v8.2h-46.9q1 7.2 5.7 11.6 4.9 4.4 12.2 4.4 11.4 0 17.7-8.3l9.7 11q-4.4 6.3-12 9.9-7.5 3.5-16.7 3.5zm-2.2-61.1q-5.9 0-9.5 4-3.6 4-4.7 11.4h27.4v-1.6q-0.2-6.6-3.6-10.1-3.4-3.7-9.6-3.7zm85.2-15.2l-0.3 19.1q-4-0.5-7-0.5-11.2 0-14.7 7.6v48.7h-19.6v-74.4h18.6l0.5 8.9q5.9-10.3 16.4-10.3 3.2 0 6.1 0.9zm3.7 37.9v-0.9q0-11.1 4.2-19.7 4.2-8.7 12.1-13.4 7.9-4.8 18.4-4.8 14.9 0 24.3 9.2 9.4 9.2 10.5 25.1l0.1 5.1q0 17.1-9.4 27.5-9.5 10.3-25.4 10.3-15.9 0-25.4-10.3-9.4-10.4-9.4-28.1zm19.6 0.6q0 10.5 4 16.2 3.9 5.5 11.2 5.5 7.2 0 11.2-5.5 4-5.5 4-17.7 0-10.4-4-16.1-4-5.7-11.3-5.7-7.2 0-11.1 5.7-4 5.7-4 17.6zm102 15.8q0-3.6-3.6-5.7-3.6-2.1-11.5-3.8-26.2-5.5-26.2-22.5 0-9.9 8.1-16.5 8.2-6.7 21.3-6.7 14 0 22.3 6.7 8.5 6.7 8.5 17.3h-19.7q0-4.2-2.7-7-2.7-2.8-8.5-2.8-5 0-7.7 2.3-2.7 2.2-2.7 5.7 0 3.3 3.1 5.4 3.1 2 10.4 3.5 7.4 1.4 12.4 3.3 15.6 5.8 15.6 20 0 10.2-8.7 16.5-8.6 6.3-22.3 6.3-9.2 0-16.4-3.3-7.1-3.4-11.2-9.2-4.1-5.8-4.1-12.6h18.6q0.3 5.3 3.9 8.2 3.6 2.8 9.6 2.8 5.7 0 8.5-2.2 3-2.2 3-5.7z"/>
</svg>