<svg version="1.2" xmlns="http://www.w3.org/2000/svg" viewBox="0 0 512 512" width="512" height="512">
	<title>vocavulary2</title>
	<style>
		.s0 { fill: #000000 } 
	</style>
	<path id="Conju gação de  verbos" class="s0" aria-label="Conju
gação de 
verbos"  d="m173.4 140.9h19q-0.4 8.3-4.5 14.8-4 6.4-11.4 9.9-7.4 3.5-16.8 3.5-15.6 0-24.6-10.3-9-10.3-9-29v-4q0-11.8 4-20.6 4.1-8.8 11.7-13.6 7.6-4.8 17.6-4.8 14.4 0 23.2 7.7 8.8 7.6 10 21.1h-19.1q-0.2-7.3-3.6-10.5-3.4-3.2-10.5-3.2-7.1 0-10.4 5.4-3.3 5.4-3.5 17.2v5.7q0 12.8 3.2 18.3 3.2 5.5 11 5.5 6.5 0 10-3.2 3.5-3.1 3.7-9.9zm24.9-0.1v-3.1q0-8.9 3.4-15.8 3.4-7 9.8-10.8 6.4-3.7 15.1-3.7 13.2 0 20.8 8.3 7.6 8.2 7.6 22.5v0.6q0 14-7.6 22.2-7.6 8.1-20.7 8.1-12.6 0-20.2-7.6-7.6-7.6-8.2-20.7zm18.3-5.3v3.3q0 8.3 2.5 12.2 2.6 3.8 7.6 3.8 9.8 0 10-15.2v-1.9q0-16-10.1-16-9.2 0-10 13.8zm46.2-27h17.1l0.6 7q6.1-8.1 16.8-8.1 9.2 0 13.7 5.5 4.6 5.6 4.8 16.8v38.3h-18.4v-37.6q0-4.5-1.8-6.6-1.8-2.1-6.5-2.1-5.4 0-8 4.3v42h-18.3zm64.4 0h18.4v61.5q0 10.6-6 16.3-5.9 5.7-16.5 5.7-4.6 0-8.6-0.9v-14q3.1 0.5 5.1 0.5 7.6 0 7.6-7.7zm-1.3-15.3q0-4 2.8-6.5 2.8-2.5 7.4-2.5 4.5 0 7.3 2.5 2.8 2.5 2.8 6.5 0 4-2.8 6.5-2.8 2.5-7.3 2.5-4.6 0-7.4-2.5-2.8-2.5-2.8-6.5zm65.7 74.8l-0.6-6.4q-5.8 7.5-15.7 7.5-9.7 0-14.7-5.6-4.9-5.7-4.9-16.4v-38.6h18.3v38.7q0 7.6 7.3 7.6 6.4 0 9-4.5v-41.8h18.4l0.1 59.5zm-361.3 105.5v-0.6q0-9.1 2.9-16 3-6.9 8.5-10.7 5.4-3.8 12.7-3.8 9.2 0 14.4 6.3l0.6-5.2h16.7v57.3q0 7.9-3.7 13.7-3.6 5.8-10.4 8.9-6.9 3.1-15.9 3.1-6.5 0-12.5-2.5-6.1-2.5-9.3-6.4l7.7-10.9q5.1 6.1 13.5 6.1 12.1 0 12.1-12.7v-1.8q-5.2 5.9-13.3 5.9-10.7 0-17.4-8.4-6.6-8.3-6.6-22.3zm18.4 0.5q0 7.3 2.7 11.6 2.7 4.3 7.6 4.3 5.9 0 8.6-4.1v-25q-2.6-4.1-8.5-4.1-4.9 0-7.7 4.5-2.7 4.4-2.7 12.8zm99.3 29.1h-18.4q-0.9-1.9-1.7-5.4-5.1 6.5-14.1 6.5-8.4 0-14.2-5.1-5.8-5.1-5.8-12.8 0-9.7 7.1-14.7 7-4.9 20.5-4.9h5.7v-3.1q0-8.2-7-8.2-6.6 0-6.6 6.5h-18.3q0-8.7 7.2-14.1 7.3-5.4 18.6-5.4 11.2 0 17.8 5.6 6.5 5.5 6.7 15.2v26.4q0.1 8.2 2.5 12.5zm-29.8-12.1q3.4 0 5.6-1.5 2.3-1.5 3.3-3.3v-9.5h-5.4q-9.5 0-9.5 8.7 0 2.5 1.7 4.1 1.6 1.5 4.3 1.5zm62.3-1.1q3.8 0 6-2.1 2.1-2.1 2-5.9h17.2q0 9.8-7 16-6.9 6.3-17.8 6.3-12.8 0-20.2-8.1-7.4-8.2-7.4-22.6v-0.7q0-9.1 3.2-15.9 3.4-7 9.6-10.7 6.2-3.7 14.6-3.7 11.5 0 18.3 6.4 6.7 6.5 6.7 17.5h-17.2q0-4.6-2.2-7.1-2.2-2.5-6-2.5-7.1 0-8.3 9.2-0.4 2.9-0.4 8 0 9 2.1 12.5 2.1 3.4 6.8 3.4zm-6 12.7h13.9l-0.5 3.3q8.1 1.6 8.1 9.5 0 6.4-5.4 10-5.3 3.7-14.9 3.7l-0.4-10.3q4.8 0 4.8-4.2 0-2.1-1.7-2.9-1.7-0.8-5.6-1.1zm90.4 0.5h-18.3q-1-1.8-1.7-5.3-5.1 6.4-14.2 6.4-8.3 0-14.1-5-5.8-5.1-5.8-12.8 0-9.7 7-14.7 7.1-4.9 20.6-4.9h5.6v-3.1q0-8.2-7-8.2-6.5 0-6.5 6.4h-18.3q0-8.6 7.2-14 7.3-5.4 18.6-5.4 11.2 0 17.7 5.6 6.6 5.5 6.7 15.2v26.4q0.1 8.2 2.5 12.5zm-29.8-12.1q3.5 0 5.7-1.5 2.3-1.5 3.2-3.3v-9.5h-5.3q-9.6 0-9.5 8.6 0 2.6 1.6 4.2 1.7 1.5 4.3 1.5zm13.1-72.5l10.1 0.6q0 6.2-3.6 10.6-3.6 4.4-8.9 4.4-3.6 0-8-2.3-4.4-2.3-7.1-2.3-1.8 0-3 1.2-1.2 1.2-1.2 3.7l-10.2-0.5q0-6.1 3.6-10.6 3.6-4.5 8.9-4.5 2.7 0 7.1 2.1 4.5 2 5.6 2.2 1.2 0.3 2.5 0.3 1.7 0 3-1.2 1.2-1.2 1.2-3.7zm22.1 57.4v-3.1q0-8.9 3.4-15.8 3.4-7 9.8-10.8 6.4-3.7 15.1-3.7 13.2 0 20.8 8.3 7.6 8.3 7.6 22.5v0.7q0 13.9-7.6 22.1-7.7 8.1-20.7 8.1-12.6 0-20.2-7.6-7.6-7.6-8.2-20.7zm18.3-5.3v3.4q0 8.2 2.5 12.1 2.6 3.8 7.6 3.8 9.8 0 10-15.2v-1.9q0-16-10.1-16-9.2 0-10 13.8zm71.9 2.3q0-14.1 6.1-22.3 6-8.1 16.8-8.1 7.9 0 13.3 6.3v-30.2h18.4v84.5h-16.5l-0.9-6.4q-5.7 7.5-14.4 7.5-10.5 0-16.6-8.1-6.2-8.2-6.2-23.2zm18.4-2.2l-0.1 3.4q0 15.8 9.2 15.8 6.1 0 8.7-5.2v-22.6q-2.5-5.3-8.6-5.3-8.5 0-9.2 13.9zm75 33.5q-13.5 0-21.9-8.1-8.4-8.2-8.4-21.3v-1.6q0-9.1 3.4-16.1 3.3-7 9.8-10.8 6.4-3.8 15.2-3.8 12.4 0 19.6 7.8 7.1 7.8 7.1 21.7v7.2h-36.4q1 5 4.3 7.8 3.3 2.9 8.6 2.9 8.7 0 13.6-6.2l8.4 10.1q-3.5 4.7-9.8 7.6-6.2 2.8-13.5 2.8zm-2-47.4q-8.1 0-9.6 10.8h18.5v-1.5q0.1-4.4-2.2-6.8-2.4-2.5-6.7-2.5zm-335.4 121.8l9.2 37.5 9.2-37.5h19.4l-19.2 59.5h-18.7l-19.2-59.5zm70.9 60.6q-13.5 0-21.9-8.1-8.4-8.2-8.4-21.3v-1.6q0-9.1 3.3-16.1 3.4-7 9.8-10.8 6.5-3.8 15.3-3.8 12.4 0 19.5 7.8 7.2 7.8 7.2 21.7v7.2h-36.4q1 5 4.3 7.9 3.3 2.8 8.6 2.8 8.7 0 13.6-6.1l8.3 10q-3.4 4.7-9.7 7.6-6.3 2.8-13.5 2.8zm-2-47.4q-8.1 0-9.6 10.8h18.5v-1.4q0.1-4.5-2.3-6.9-2.3-2.5-6.6-2.5zm70.1-13.6l-0.3 17.2-6.1-0.5q-8.6 0-11.1 5.5v37.7h-18.3v-59.5h17.2l0.6 7.6q4.6-8.7 12.9-8.7 2.9 0 5.1 0.7zm60.9 29.7v0.9q0 14.7-6 22.5-6 7.9-16.8 7.9-9 0-14.5-7.2l-0.8 6.1h-16.4v-84.5h18.3v29.8q5.1-5.9 13.2-5.9 11 0 17 8 6 7.9 6 22.4zm-18.4-0.2q0-8.6-2.3-12.2-2.2-3.7-6.9-3.7-6.2 0-8.6 4.8v23.6q2.4 4.8 8.7 4.8 6.5 0 8.2-6.4 0.9-3.2 0.9-10.9zm24.2 3.2v-3.1q0-8.9 3.4-15.8 3.4-7 9.8-10.8 6.4-3.7 15.1-3.7 13.2 0 20.8 8.3 7.6 8.3 7.6 22.5v0.7q0 13.9-7.6 22.1-7.7 8.1-20.7 8.1-12.6 0-20.2-7.6-7.6-7.6-8.2-20.7zm18.3-5.3v3.4q0 8.2 2.5 12.1 2.6 3.8 7.6 3.8 9.8 0 10-15.2v-1.9q0-16-10.1-16-9.2 0-10 13.8zm77.3 15.8q0-2.4-2.4-3.8-2.5-1.4-9.3-3-6.9-1.5-11.4-4-4.4-2.5-6.8-6.1-2.3-3.6-2.3-8.2 0-8.2 6.7-13.5 6.7-5.3 17.5-5.3 11.6 0 18.7 5.3 7.1 5.4 7.1 14.1h-18.4q0-7.2-7.4-7.2-2.9 0-4.9 1.7-1.9 1.6-1.9 4 0 2.4 2.3 4 2.4 1.5 7.7 2.5 5.2 1 9.2 2.4 13.3 4.6 13.3 16.5 0 8.2-7.2 13.3-7.1 5.1-18.5 5.1-7.5 0-13.5-2.7-5.9-2.8-9.2-7.5-3.3-4.8-3.3-10h17.1q0.1 4.1 2.7 6.1 2.6 1.8 6.7 1.8 3.7 0 5.6-1.5 1.9-1.5 1.9-4z"/>
</svg>