<svg version="1.2" xmlns="http://www.w3.org/2000/svg" viewBox="0 0 512 512" width="512" height="512">
	<title>vocavulary2</title>
	<style>
		.s0 { fill: #000000 } 
	</style>
	<path id="Voca bulário" class="s0" aria-label="Voca
bulário"  d="m120.2 121.9l22.3 75.3 22.4-75.3h22.7l-34.4 100.1h-21.3l-34.3-100.1zm69.2 63.1v-0.9q0-11.1 4.2-19.7 4.3-8.7 12.1-13.4 8-4.8 18.5-4.8 14.8 0 24.2 9.2 9.5 9.3 10.6 25.1l0.1 5.1q0 17.1-9.4 27.5-9.5 10.3-25.4 10.3-15.9 0-25.4-10.3-9.5-10.3-9.5-28.1zm19.7 0.6q0 10.5 3.9 16.2 4 5.6 11.3 5.6 7.1 0 11.1-5.5 4.1-5.6 4.1-17.8 0-10.4-4.1-16.1-4-5.7-11.2-5.7-7.2 0-11.2 5.7-3.9 5.7-3.9 17.6zm92.7 21.8q5.4 0 8.8-3.1 3.4-3 3.6-8h18.4q-0.1 7.5-4.1 13.9-4 6.2-11 9.7-6.9 3.5-15.4 3.5-15.7 0-24.9-10.1-9.1-10.2-9.1-28.1v-1.3q0-17.2 9.1-27.4 9-10.3 24.8-10.3 13.8 0 22.1 8 8.3 7.9 8.5 21.1h-18.4q-0.2-5.8-3.6-9.3-3.4-3.7-9-3.7-6.8 0-10.4 5.1-3.4 5-3.4 16.4v2q0 11.5 3.4 16.5 3.5 5.1 10.6 5.1zm104.4 14.6h-19.8q-1.4-2.7-2-6.7-7.1 8.1-18.5 8.1-10.8 0-18-6.4-7-6.3-7-15.9 0-11.8 8.6-18.2 8.7-6.3 25.1-6.3h9v-4.3q0-5.2-2.6-8.3-2.6-3.1-8.3-3.1-4.9 0-7.8 2.5-2.8 2.4-2.8 6.6h-19.6q0-6.5 3.9-12 4-5.5 11.2-8.6 7.2-3.2 16.2-3.2 13.6 0 21.5 7 8 6.9 8 19.4v32.2q0.1 10.6 2.9 16zm-36-13.8q4.3 0 8-1.9 3.6-2 5.4-5.3v-12.8h-7.3q-14.8 0-15.7 10.3l-0.1 1.2q0 3.7 2.6 6.1 2.6 2.4 7.1 2.4zm-259.5 145.2v1.1q0 17.9-7.6 27.9-7.5 10-21 10-12 0-19.1-9.3l-0.9 7.9h-17.7v-105.6h19.7v37.9q6.8-8 17.8-8 13.5 0 21.1 10 7.7 10 7.7 28.1zm-19.7-0.3q0-11.3-3.5-16.4-3.5-5.3-10.5-5.3-9.4 0-12.9 7.8v29.4q3.6 7.8 13 7.8 9.5 0 12.5-9.5 1.4-4.5 1.4-13.8zm76.4 37.9l-0.6-7.5q-7.2 8.9-20.1 8.9-11.8 0-18.1-6.9-6.1-6.8-6.3-20.1v-48.8h19.7v48.1q0 11.6 10.4 11.6 10 0 13.8-7v-52.7h19.7v74.4zm54-105.6v105.6h-19.7v-105.6zm78.6 105.6h-19.8q-1.4-2.7-2-6.6-7.1 8-18.5 8-10.9 0-18-6.3-7.1-6.3-7.1-16 0-11.8 8.7-18.1 8.7-6.3 25.1-6.4h9v-4.3q0-5.1-2.7-8.2-2.5-3.1-8.2-3.1-4.9 0-7.8 2.4-2.8 2.4-2.8 6.6h-19.6q0-6.5 3.9-12 4-5.5 11.2-8.6 7.2-3.1 16.1-3.1 13.6 0 21.6 6.9 8 6.9 8 19.4v32.2q0.1 10.6 2.9 16.1zm-36.1-13.9q4.4 0 8.1-1.9 3.6-2 5.4-5.3v-12.8h-7.3q-14.8 0-15.7 10.3l-0.1 1.2q0 3.7 2.6 6.1 2.6 2.4 7 2.4zm-5.9-70.4l13.4-21.3h21.4l-18.8 21.3zm95.8 9.4l-0.3 19.1q-4-0.5-7.1-0.5-11.1 0-14.6 7.6v48.7h-19.6v-74.4h18.5l0.6 8.8q5.9-10.2 16.3-10.2 3.3 0 6.2 0.9zm29.9 0.5v74.4h-19.7v-74.4zm-20.9-19.3q0-4.4 2.9-7.3 3-2.9 8.1-2.9 5 0 8 2.9 3 2.9 3 7.3 0 4.6-3 7.4-3 2.9-8 2.9-5 0-8-2.9-3-2.8-3-7.4zm34 56.7v-0.9q0-11.1 4.2-19.8 4.2-8.6 12.1-13.4 7.9-4.7 18.4-4.7 14.9 0 24.3 9.2 9.4 9.2 10.5 25l0.1 5.1q0 17.1-9.4 27.5-9.5 10.3-25.4 10.3-15.9 0-25.4-10.3-9.4-10.3-9.4-28zm19.6 0.5q0 10.6 4 16.2 3.9 5.6 11.2 5.6 7.2 0 11.2-5.5 4-5.6 4-17.7 0-10.4-4-16.1-4-5.7-11.3-5.7-7.2 0-11.1 5.7-4 5.6-4 17.5z"/>
</svg>